<svg width="617" height="629" viewBox="0 0 617 629" fill="none" xmlns="http://www.w3.org/2000/svg">
<g clip-path="url(#clip0_28_36)">
<path d="M135.025 240.002C114.239 212.187 76.1978 205.474 57.2941 219.6C38.3904 233.726 34.048 272.11 54.8331 299.925C74.0723 325.672 108.929 332.694 128.128 323.048C128.066 323.349 128.062 323.659 128.117 323.962L129.199 329.313C129.281 329.721 129.467 330.101 129.738 330.417C130.008 330.733 130.355 330.975 130.746 331.119C131.136 331.264 131.557 331.306 131.968 331.242C132.379 331.177 132.767 331.009 133.095 330.753L142.261 323.592C142.589 323.336 142.846 323 143.008 322.617C143.17 322.233 143.231 321.815 143.185 321.401C143.14 320.987 142.989 320.592 142.748 320.253C142.507 319.914 142.183 319.642 141.807 319.463L136.877 317.118C136.703 317.04 136.521 316.983 136.334 316.948C151.133 301.303 154.306 265.805 135.025 240.002Z" fill="#CCCCCC"/>
<path d="M89.5598 229.5C99.7272 231.115 108.886 236.572 115.147 244.745C121.408 252.917 124.291 263.182 123.203 273.419C122.98 275.764 126.644 275.749 126.866 273.419C127.914 262.385 124.752 251.362 118.013 242.562C111.275 233.762 101.459 227.835 90.5334 225.969C88.228 225.577 87.2373 229.106 89.5598 229.5Z" fill="white"/>
<path d="M612.597 274.828C623.781 241.955 607.802 206.785 585.462 199.184C563.121 191.583 529.009 209.711 517.824 242.584C507.472 273.012 521.395 305.729 540.208 316.107C539.924 316.227 539.666 316.399 539.448 316.615L535.647 320.534C535.357 320.833 535.148 321.201 535.041 321.603C534.933 322.005 534.93 322.428 535.032 322.831C535.134 323.235 535.337 323.606 535.622 323.909C535.908 324.211 536.266 324.436 536.663 324.562L547.752 328.071C548.149 328.197 548.571 328.219 548.979 328.135C549.387 328.052 549.766 327.866 550.082 327.594C550.397 327.322 550.638 326.975 550.781 326.584C550.925 326.193 550.966 325.772 550.901 325.361L550.046 319.969C550.012 319.782 549.956 319.599 549.88 319.425C571.152 322.781 602.222 305.322 612.597 274.828Z" fill="#CCCCCC"/>
<path d="M595.544 231.393C599.963 240.692 600.643 251.332 597.443 261.117C594.244 270.902 587.41 279.085 578.352 283.978C576.292 285.12 578.377 288.133 580.423 286.998C590.116 281.622 597.418 272.781 600.865 262.246C604.311 251.712 603.648 240.264 599.008 230.199C598.027 228.076 594.557 229.255 595.544 231.393Z" fill="white"/>
<path d="M349.846 60.6504C348.326 25.9602 320.665 -1.004 297.089 0.0286978C273.513 1.0614 248.315 30.341 249.835 65.0311C251.241 97.1411 276.096 122.567 297.394 125.404C297.173 125.618 296.996 125.872 296.87 126.153L294.752 131.185C294.591 131.568 294.53 131.987 294.576 132.4C294.622 132.814 294.773 133.209 295.014 133.548C295.256 133.887 295.58 134.159 295.955 134.337C296.331 134.516 296.747 134.595 297.162 134.568L308.769 133.81C309.184 133.783 309.586 133.65 309.935 133.424C310.285 133.198 310.571 132.887 310.766 132.519C310.961 132.152 311.059 131.74 311.051 131.324C311.043 130.908 310.928 130.501 310.718 130.142L307.963 125.428C307.864 125.266 307.745 125.116 307.611 124.982C328.649 120.382 351.255 92.8302 349.846 60.6504Z" fill="#14B8A6"/>
<path d="M318.182 26.3759C325.676 33.4346 330.174 43.101 330.747 53.3798C331.321 63.6587 327.926 73.7654 321.263 81.6138C319.759 83.4261 322.795 85.4761 324.29 83.6756C331.368 75.1462 334.96 64.2563 334.345 53.1896C333.73 42.123 328.954 31.6979 320.975 24.0052C319.29 22.3834 316.485 24.7421 318.182 26.3759Z" fill="white"/>
<path d="M351.752 362.241C379.229 362.241 401.504 339.966 401.504 312.489C401.504 285.011 379.229 262.737 351.752 262.737C324.275 262.737 302 285.011 302 312.489C302 339.966 324.275 362.241 351.752 362.241Z" fill="#14B8A6"/>
<path d="M349.49 627.948H335.77C334.168 627.946 332.632 627.309 331.499 626.176C330.366 625.044 329.729 623.508 329.727 621.906V507.551C329.729 505.949 330.366 504.413 331.499 503.28C332.632 502.147 334.168 501.51 335.77 501.508H349.49C351.092 501.51 352.628 502.147 353.761 503.28C354.894 504.413 355.531 505.949 355.533 507.551V621.906C355.531 623.508 354.894 625.044 353.761 626.176C352.628 627.309 351.092 627.946 349.49 627.948V627.948Z" fill="#14B8A6"/>
<path d="M393.44 627.948H379.719C378.117 627.946 376.582 627.309 375.449 626.176C374.316 625.044 373.679 623.508 373.677 621.906V507.551C373.679 505.949 374.316 504.413 375.449 503.28C376.582 502.147 378.117 501.51 379.719 501.508H393.44C395.042 501.51 396.578 502.147 397.711 503.28C398.843 504.413 399.481 505.949 399.482 507.551V621.906C399.481 623.508 398.843 625.044 397.711 626.176C396.578 627.309 395.042 627.946 393.44 627.948V627.948Z" fill="#14B8A6"/>
<path d="M315.186 409.197L309.301 421.591C308.612 423.037 307.377 424.151 305.868 424.688C304.359 425.226 302.698 425.142 301.25 424.457L197.952 375.401C196.505 374.712 195.391 373.478 194.854 371.969C194.317 370.46 194.4 368.799 195.085 367.351L200.971 354.957C201.66 353.511 202.895 352.397 204.404 351.859C205.913 351.322 207.574 351.405 209.022 352.091L312.32 401.147C313.766 401.835 314.88 403.07 315.418 404.579C315.955 406.088 315.872 407.749 315.186 409.197Z" fill="#14B8A6"/>
<path d="M330.749 415.84C331.041 417.248 330.817 418.714 330.118 419.97L323.487 431.981C322.711 433.383 321.41 434.419 319.871 434.864C318.332 435.308 316.679 435.123 315.276 434.351L266.734 412.952C265.332 412.176 264.295 410.876 263.851 409.337C263.407 407.797 263.592 406.145 264.365 404.742L264.365 404.741L276.529 381.985C276.913 381.291 277.429 380.678 278.049 380.183C278.669 379.688 279.381 379.32 280.143 379.1C280.906 378.88 281.704 378.813 282.493 378.901C283.281 378.99 284.044 379.233 284.739 379.616L328.336 408.436C329.749 409.216 330.186 413.823 330.634 415.374C330.679 415.529 330.717 415.685 330.749 415.84Z" fill="#2F2E41"/>
<path d="M390.432 401.147L493.73 352.091C495.178 351.405 496.839 351.322 498.348 351.859C499.857 352.397 501.092 353.511 501.781 354.957L507.666 367.351C508.352 368.799 508.435 370.46 507.898 371.969C507.361 373.478 506.247 374.712 504.8 375.401L401.502 424.457C400.054 425.142 398.393 425.226 396.884 424.688C395.375 424.151 394.14 423.037 393.451 421.591L387.566 409.197C386.88 407.749 386.797 406.088 387.334 404.579C387.871 403.07 388.985 401.835 390.432 401.147Z" fill="#14B8A6"/>
<path d="M372.118 415.374C372.566 413.823 373.003 409.216 374.416 408.436L418.013 379.616C418.708 379.233 419.471 378.99 420.259 378.901C421.048 378.813 421.846 378.88 422.609 379.1C423.371 379.32 424.083 379.688 424.703 380.183C425.323 380.678 425.839 381.291 426.223 381.985L438.387 404.741L438.387 404.742C439.16 406.145 439.345 407.797 438.901 409.337C438.457 410.876 437.42 412.176 436.018 412.952L387.476 434.351C386.073 435.123 384.42 435.308 382.881 434.864C381.341 434.419 380.041 433.383 379.265 431.981L372.634 419.97C371.935 418.714 371.711 417.248 372.003 415.84C372.035 415.685 372.073 415.529 372.118 415.374Z" fill="#2F2E41"/>
<path d="M345.129 330.928L345.077 329.069C348.536 328.973 351.585 328.756 353.877 327.082C354.526 326.58 355.06 325.945 355.442 325.218C355.824 324.492 356.045 323.692 356.09 322.872C356.131 322.372 356.055 321.868 355.869 321.402C355.683 320.935 355.392 320.518 355.019 320.182C353.498 318.897 351.05 319.313 349.266 320.131L347.728 320.836L350.678 299.278L352.52 299.53L350.011 317.868C351.038 317.487 352.144 317.369 353.228 317.526C354.313 317.682 355.341 318.107 356.219 318.762C356.81 319.277 357.273 319.923 357.573 320.647C357.873 321.372 358.002 322.155 357.948 322.938C357.894 324.039 357.6 325.115 357.086 326.09C356.572 327.065 355.851 327.916 354.973 328.584C352.029 330.735 348.203 330.842 345.129 330.928Z" fill="#2F2E41"/>
<path d="M371.643 301.112H361.63V302.971H371.643V301.112Z" fill="#2F2E41"/>
<path d="M340.036 301.112H330.023V302.971H340.036V301.112Z" fill="#2F2E41"/>
<path d="M368.903 385.494H370.909C371.711 385.495 372.506 385.338 373.247 385.032C373.989 384.726 374.663 384.276 375.23 383.709C375.798 383.142 376.248 382.469 376.556 381.728C376.863 380.987 377.021 380.193 377.021 379.39C377.021 378.588 376.863 377.794 376.556 377.052C376.248 376.311 375.798 375.638 375.23 375.071C374.663 374.504 373.989 374.055 373.247 373.749C372.506 373.442 371.711 373.285 370.909 373.286H331.843C330.225 373.288 328.675 373.932 327.532 375.077C326.389 376.221 325.747 377.773 325.747 379.39C325.747 381.008 326.389 382.559 327.532 383.704C328.675 384.848 330.225 385.492 331.843 385.494H335.512C304.16 399.758 284.042 452.449 284.042 485.285C284.042 523.536 311.649 535.875 352.209 535.875C392.768 535.875 430.921 523.536 430.921 485.285C430.921 452.449 402.583 399.758 368.903 385.494Z" fill="#2F2E41"/>
<path d="M349.703 284.075C348.491 280.391 344.117 279.26 340.752 280.65C336.805 282.28 334.567 286.317 330.755 288.225C323.899 291.658 314.803 289.814 309.576 284.312C303.86 278.296 302.734 268.907 305.611 261.311C308.586 253.455 315.966 247.769 323.868 245.46C334.368 242.391 345.633 245.207 354.728 250.867C354.971 251.005 355.242 251.087 355.521 251.105C355.8 251.123 356.08 251.078 356.339 250.973C356.598 250.868 356.829 250.705 357.016 250.497C357.203 250.289 357.341 250.041 357.418 249.773C359.919 240.218 370.707 237.437 379.376 238.462C387.932 239.64 396.072 242.888 403.088 247.925C416.641 257.38 426.194 272.78 427.533 289.36C428.176 297.888 426.947 306.453 423.933 314.457C420.919 322.46 416.192 329.708 410.083 335.692C407.027 338.641 403.467 340.959 400.353 343.832C397.516 346.449 394.719 349.892 394.776 353.965C394.906 363.332 407.231 365.915 414.526 366.196C423.58 366.601 432.473 363.694 439.54 358.018C446.607 352.343 451.365 344.288 452.925 335.36C453.314 333.186 453.515 330.983 453.527 328.775C453.538 326.418 449.875 326.415 449.864 328.775C449.796 337.676 446.293 346.208 440.087 352.589C436.897 355.789 433.1 358.32 428.919 360.032C424.738 361.744 420.257 362.604 415.738 362.561C409.915 362.532 394.138 359.771 399.426 350.559C401.493 346.958 405.203 344.505 408.401 341.999C411.728 339.385 414.748 336.403 417.405 333.11C422.757 326.502 426.701 318.87 428.996 310.683C431.292 302.495 431.889 293.925 430.753 285.498C428.392 268.983 418.378 254.06 404.756 244.636C391.786 235.664 367.814 227.728 356.478 243.274C355.277 244.938 354.398 246.812 353.886 248.799L356.576 247.705C347.814 242.251 337.37 239.422 327.071 241C322.639 241.668 318.389 243.234 314.583 245.6C310.776 247.967 307.492 251.086 304.932 254.765C302.477 258.466 300.975 262.715 300.558 267.136C300.141 271.557 300.823 276.013 302.542 280.107C304.226 284.029 307.003 287.384 310.54 289.773C314.078 292.162 318.227 293.483 322.495 293.58C327.116 293.765 331.663 292.374 335.389 289.633C337.475 288.043 339.077 285.791 341.335 284.436C342.628 283.66 345.535 283.116 346.171 285.048C346.905 287.277 350.443 286.323 349.703 284.075V284.075Z" fill="#2F2E41"/>
<path d="M432.715 103.274C441.802 103.847 450.625 106.565 458.459 111.205C466.293 115.846 472.916 122.277 477.785 129.972C479.15 132.153 480.931 134.55 479.986 137.235C479.657 138.264 478.989 139.152 478.09 139.752C477.191 140.352 476.115 140.63 475.038 140.54C472.253 140.201 470.456 137.476 470.113 134.866C469.724 131.905 471.813 129.58 474.392 128.48C480.695 125.791 487.054 129.946 492.188 133.262C503.886 140.818 516.753 147.651 530.928 148.512C544.044 149.309 558.108 144.166 565.402 132.793C566.679 130.803 563.51 128.964 562.24 130.944C555.005 142.224 540.38 146.275 527.663 144.532C520.085 143.336 512.767 140.851 506.027 137.186C502.532 135.372 499.142 133.361 495.821 131.248C492.66 129.042 489.31 127.122 485.81 125.509C479.972 123.111 472.245 123.298 468.167 128.819C464.363 133.97 467.303 142.544 473.666 143.992C479.695 145.365 484.978 139.694 483.737 133.765C483.102 130.732 480.818 127.763 479.05 125.284C473.738 117.812 466.818 111.627 458.799 107.184C450.78 102.741 441.866 100.153 432.715 99.612C430.359 99.4954 430.365 103.158 432.715 103.274L432.715 103.274Z" fill="#CCCCCC"/>
<path d="M132.985 160.798C123.897 160.225 115.075 157.507 107.241 152.867C99.4062 148.226 92.7832 141.795 87.9144 134.1C86.5499 131.919 84.7687 129.522 85.7132 126.837C86.0423 125.808 86.7108 124.92 87.6096 124.32C88.5084 123.72 89.5842 123.442 90.6612 123.532C93.4462 123.871 95.2433 126.596 95.5864 129.206C95.9756 132.167 93.8865 134.492 91.3073 135.592C85.0045 138.281 78.6456 134.126 73.5116 130.81C61.8133 123.254 48.9464 116.421 34.7713 115.56C21.6561 114.763 7.59212 119.906 0.297266 131.279C-0.978994 133.269 2.18981 135.108 3.45974 133.128C10.6945 121.848 25.3199 117.797 38.0366 119.54C45.6148 120.736 52.9324 123.221 59.6722 126.886C63.1675 128.7 66.5575 130.711 69.879 132.824C73.0395 135.03 76.3896 136.95 79.8898 138.563C85.7272 140.961 93.4548 140.774 97.5323 135.253C101.336 130.102 98.3965 121.528 92.034 120.08C86.0044 118.707 80.7221 124.378 81.963 130.307C82.5978 133.34 84.8818 136.309 86.6496 138.788C91.9613 146.26 98.8815 152.445 106.901 156.888C114.92 161.331 123.833 163.919 132.985 164.46C135.341 164.577 135.335 160.914 132.985 160.798L132.985 160.798Z" fill="#CCCCCC"/>
<path d="M555.347 629H174.347C174.081 629 173.827 628.895 173.64 628.707C173.452 628.52 173.347 628.265 173.347 628C173.347 627.735 173.452 627.48 173.64 627.293C173.827 627.105 174.081 627 174.347 627H555.347C555.612 627 555.866 627.105 556.054 627.293C556.241 627.48 556.347 627.735 556.347 628C556.347 628.265 556.241 628.52 556.054 628.707C555.866 628.895 555.612 629 555.347 629Z" fill="#3F3D56"/>
</g>
<defs>
<clipPath id="clip0_28_36">
<rect width="616.258" height="629" fill="white"/>
</clipPath>
</defs>
</svg>
